ffmpeg version 4.2.7-0ubuntu0.1 Copyright (c) 2000-2022 the FFmpeg developers
  built with gcc 9 (Ubuntu 9.4.0-1ubuntu1~20.04.1)
  configuration: --prefix=/usr --extra-version=0ubuntu0.1 --toolchain=hardened --libdir=/usr/lib/x86_64-linux-gnu --incdir=/usr/include/x86_64-linux-gnu --arch=amd64 --enable-gpl --disable-stripping --enable-avresample --disable-filter=resample --enable-avisynth --enable-gnutls --enable-ladspa --enable-libaom --enable-libass --enable-libbluray --enable-libbs2b --enable-libcaca --enable-libcdio --enable-libcodec2 --enable-libflite --enable-libfontconfig --enable-libfreetype --enable-libfribidi --enable-libgme --enable-libgsm --enable-libjack --enable-libmp3lame --enable-libmysofa --enable-libopenjpeg --enable-libopenmpt --enable-libopus --enable-libpulse --enable-librsvg --enable-librubberband --enable-libshine --enable-libsnappy --enable-libsoxr --enable-libspeex --enable-libssh --enable-libtheora --enable-libtwolame --enable-libvidstab --enable-libvorbis --enable-libvpx --enable-libwavpack --enable-libwebp --enable-libx265 --enable-libxml2 --enable-libxvid --enable-libzmq --enable-libzvbi --enable-lv2 --enable-omx --enable-openal --enable-opencl --enable-opengl --enable-sdl2 --enable-libdc1394 --enable-libdrm --enable-libiec61883 --enable-nvenc --enable-chromaprint --enable-frei0r --enable-libx264 --enable-shared
  libavutil      56. 31.100 / 56. 31.100
  libavcodec     58. 54.100 / 58. 54.100
  libavformat    58. 29.100 / 58. 29.100
  libavdevice    58.  8.100 / 58.  8.100
  libavfilter     7. 57.100 /  7. 57.100
  libavresample   4.  0.  0 /  4.  0.  0
  libswscale      5.  5.100 /  5.  5.100
  libswresample   3.  5.100 /  3.  5.100
  libpostproc    55.  5.100 / 55.  5.100
Routing option strict to both codec and muxer layer
[h264 @ 0x55b255d7a0c0] Reinit context to 1920x1088, pix_fmt: yuv420p
Input #0, mov,mp4,m4a,3gp,3g2,mj2, from '/var/www/html/project/media/video/original/20221220_105259.mp4':
  Metadata:
    major_brand     : mp42
    minor_version   : 0
    compatible_brands: isommp42
    creation_time   : 2022-12-20T09:53:18.000000Z
    location        : +44.4086+008.9057/
    location-eng    : +44.4086+008.9057/
    com.android.version: 8.0.0
  Duration: 00:00:17.68, start: 0.000000, bitrate: 17305 kb/s
    Stream #0:0(eng): Video: h264 (High), 1 reference frame (avc1 / 0x31637661), yuv420p(tv, bt709, left), 1920x1080 (1920x1088), 17044 kb/s, SAR 1:1 DAR 16:9, 30.02 fps, 30 tbr, 90k tbn, 180k tbc (default)
    Metadata:
      rotate          : 90
      creation_time   : 2022-12-20T09:53:18.000000Z
      handler_name    : VideoHandle
    Side data:
      displaymatrix: rotation of -90.00 degrees
    Stream #0:1(eng): Audio: aac (LC) (mp4a / 0x6134706D), 48000 Hz, stereo, fltp, 256 kb/s (default)
    Metadata:
      creation_time   : 2022-12-20T09:53:18.000000Z
      handler_name    : SoundHandle
Input #1, png_pipe, from '/var/www/html/project/static/images/templates/logo_vertical.png':
  Duration: N/A, bitrate: N/A
    Stream #1:0: Video: png, 1 reference frame, rgba(pc), 1920x1080 [SAR 2835:2835 DAR 16:9], 25 tbr, 25 tbn, 25 tbc
[Parsed_scale_1 @ 0x55b255d79a80] w:1280 h:720 flags:'bilinear' interl:0
[Parsed_scale_4 @ 0x55b255da8280] w:-1 h:720 flags:'bilinear' interl:0
[Parsed_scale_6 @ 0x55b255d8b780] w:1280 h:720 flags:'bilinear' interl:0
Stream mapping:
  Stream #0:0 (h264) -> split (graph 0)
  Stream #1:0 (png) -> scale (graph 0)
  overlay (graph 0) -> Stream #0:0 (libx264)
  Stream #0:1 -> #0:1 (aac (native) -> aac (native))
Press [q] to stop, [?] for help
[graph_1_in_0_1 @ 0x55b256152a40] tb:1/48000 samplefmt:fltp samplerate:48000 chlayout:0x3
[h264 @ 0x55b255dbc500] Reinit context to 1920x1088, pix_fmt: yuv420p
[Parsed_scale_1 @ 0x55b255dd9a80] w:1280 h:720 flags:'bilinear' interl:0
[Parsed_scale_4 @ 0x55b256e06600] w:-1 h:720 flags:'bilinear' interl:0
[Parsed_scale_6 @ 0x55b256e08080] w:1280 h:720 flags:'bilinear' interl:0
[graph 0 input from stream 0:0 @ 0x55b255ddbb40] w:1920 h:1080 pixfmt:yuv420p tb:1/90000 fr:30/1 sar:1/1 sws_param:flags=2
[graph 0 input from stream 1:0 @ 0x55b2561f3d80] w:1920 h:1080 pixfmt:rgba tb:1/25 fr:25/1 sar:2835/2835 sws_param:flags=2
[transpose @ 0x55b256e09d00] w:1920 h:1080 dir:1 -> w:1080 h:1920 rotation:clockwise vflip:0
[Parsed_scale_1 @ 0x55b255dd9a80] w:1080 h:1920 fmt:yuv420p sar:1/1 -> w:1280 h:720 fmt:yuv420p sar:81/256 flags:0x2
[Parsed_boxblur_2 @ 0x55b255dd3400] luma_radius:36 luma_power:1 chroma_radius:18 chroma_power:1 alpha_radius:36 alpha_power:1 w:1280 chroma_w:640 h:720 chroma_h:360
[Parsed_setsar_3 @ 0x55b256e05800] w:1280 h:720 sar:81/256 dar:9/16 -> sar:1/1 dar:16/9
[Parsed_scale_4 @ 0x55b256e06600] w:1080 h:1920 fmt:yuv420p sar:1/1 -> w:405 h:720 fmt:yuva420p sar:1/1 flags:0x2
[Parsed_setsar_5 @ 0x55b256e072c0] w:405 h:720 sar:1/1 dar:9/16 -> sar:1/1 dar:9/16
[Parsed_overlay_8 @ 0x55b256e09740] main w:1280 h:720 fmt:yuv420p overlay w:405 h:720 fmt:yuva420p
[Parsed_overlay_8 @ 0x55b256e09740] [framesync @ 0x55b256e09868] Selected 1/90000 time base
[Parsed_overlay_8 @ 0x55b256e09740] [framesync @ 0x55b256e09868] Sync level 2
[Parsed_scale_6 @ 0x55b256e08080] w:1920 h:1080 fmt:rgba sar:2835/2835 -> w:1280 h:720 fmt:yuva420p sar:1/1 flags:0x2
[Parsed_setsar_7 @ 0x55b256e08b80] w:1280 h:720 sar:1/1 dar:16/9 -> sar:1/1 dar:16/9
[Parsed_overlay_9 @ 0x55b256e0a6c0] main w:1280 h:720 fmt:yuv420p overlay w:1280 h:720 fmt:yuva420p
[Parsed_overlay_9 @ 0x55b256e0a6c0] [framesync @ 0x55b256e0a828] Selected 1/90000 time base
[Parsed_overlay_9 @ 0x55b256e0a6c0] [framesync @ 0x55b256e0a828] Sync level 2
[libx264 @ 0x55b255db7640] using SAR=1/1
[libx264 @ 0x55b255db7640] using cpu capabilities: MMX2 SSE2Fast SSSE3 SSE4.2 AVX FMA3 BMI2 AVX2
[libx264 @ 0x55b255db7640] profile High, level 3.1
[libx264 @ 0x55b255db7640] 264 - core 155 r2917 0a84d98 - H.264/MPEG-4 AVC codec - Copyleft 2003-2018 - http://www.videolan.org/x264.html - options: cabac=1 ref=1 deblock=1:0:0 analyse=0x3:0x113 me=hex subme=2 psy=1 psy_rd=1.00:0.00 mixed_ref=0 me_range=16 chroma_me=1 trellis=0 8x8dct=1 cqm=0 deadzone=21,11 fast_pskip=1 chroma_qp_offset=0 threads=22 lookahead_threads=5 sliced_threads=0 nr=0 decimate=1 interlaced=0 bluray_compat=0 constrained_intra=0 bframes=3 b_pyramid=2 b_adapt=1 b_bias=0 direct=1 weightb=1 open_gop=0 weightp=1 keyint=250 keyint_min=25 scenecut=40 intra_refresh=0 rc_lookahead=10 rc=crf mbtree=1 crf=18.0 qcomp=0.60 qpmin=0 qpmax=69 qpstep=4 ip_ratio=1.40 aq=1:1.00
Output #0, mp4, to '/var/www/html/project/media/video/watermarks/20221220_105259.mp4':
  Metadata:
    major_brand     : mp42
    minor_version   : 0
    compatible_brands: isommp42
    com.android.version: 8.0.0
    location        : +44.4086+008.9057/
    location-eng    : +44.4086+008.9057/
    encoder         : Lavf58.29.100
    Stream #0:0: Video: h264 (libx264), 1 reference frame (avc1 / 0x31637661), yuv420p, 1280x720 [SAR 1:1 DAR 16:9], q=-1--1, 30 fps, 15360 tbn, 30 tbc (default)
    Metadata:
      encoder         : Lavc58.54.100 libx264
    Side data:
      cpb: bitrate max/min/avg: 0/0/0 buffer size: 0 vbv_delay: -1
    Stream #0:1(eng): Audio: aac (LC) (mp4a / 0x6134706D), 48000 Hz, stereo, fltp, delay 1024, 128 kb/s (default)
    Metadata:
      creation_time   : 2022-12-20T09:53:18.000000Z
      handler_name    : SoundHandle
      encoder         : Lavc58.54.100 aac
[Parsed_overlay_8 @ 0x55b256e09740] [framesync @ 0x55b256e09868] Sync level 1
[Parsed_overlay_8 @ 0x55b256e09740] [framesync @ 0x55b256e09868] Sync level 0
[Parsed_overlay_9 @ 0x55b256e0a6c0] [framesync @ 0x55b256e0a828] Sync level 0
No more output streams to write to, finishing.
frame=  531 fps= 50 q=-1.0 Lsize=    5857kB time=00:00:17.66 bitrate=2716.4kbits/s speed=1.65x    
[AVIOContext @ 0x55b255d78280] Statistics: 0 seeks, 21 writeouts
video:5558kB audio:278kB subtitle:0kB other streams:0kB global headers:0kB muxing overhead: 0.349533%
Input file #0 (/var/www/html/project/media/video/original/20221220_105259.mp4):
  Input stream #0:0 (video): 531 packets read (37666654 bytes); 531 frames decoded; 
  Input stream #0:1 (audio): 828 packets read (565368 bytes); 828 frames decoded (847872 samples); 
  Total: 1359 packets (38232022 bytes) demuxed
Input file #1 (/var/www/html/project/static/images/templates/logo_vertical.png):
  Input stream #1:0 (video): 1 packets read (93903 bytes); 1 frames decoded; 
  Total: 1 packets (93903 bytes) demuxed
Output file #0 (/var/www/html/project/media/video/watermarks/20221220_105259.mp4):
  Output stream #0:0 (video): 531 frames encoded; 531 packets muxed (5691874 bytes); 
  Output stream #0:1 (audio): 828 frames encoded (847872 samples); 829 packets muxed (284965 bytes); 
  Total: 1360 packets (5976839 bytes) muxed
[AVIOContext @ 0x55b255d8ad80] Statistics: 2 seeks, 26 writeouts
[libx264 @ 0x55b255db7640] frame I:3     Avg QP:15.12  size: 73783
[libx264 @ 0x55b255db7640] frame P:134   Avg QP:17.25  size: 23348
[libx264 @ 0x55b255db7640] frame B:394   Avg QP:20.38  size:  5942
[libx264 @ 0x55b255db7640] consecutive B-frames:  0.6%  0.8%  2.3% 96.4%
[libx264 @ 0x55b255db7640] mb I  I16..4: 32.1% 36.7% 31.2%
[libx264 @ 0x55b255db7640] mb P  I16..4: 14.8% 10.8%  1.2%  P16..4: 25.1% 12.6%  6.8%  0.0%  0.0%    skip:28.6%
[libx264 @ 0x55b255db7640] mb B  I16..4:  2.1%  0.6%  0.0%  B16..8: 18.4%  6.4%  0.8%  direct: 7.3%  skip:64.4%  L0:40.1% L1:42.0% BI:18.0%
[libx264 @ 0x55b255db7640] 8x8 transform intra:36.3% inter:39.1%
[libx264 @ 0x55b255db7640] coded y,uvDC,uvAC intra: 25.7% 30.5% 5.2% inter: 9.8% 9.0% 0.6%
[libx264 @ 0x55b255db7640] i16 v,h,dc,p: 37% 35%  8% 20%
[libx264 @ 0x55b255db7640] i8 v,h,dc,ddl,ddr,vr,hd,vl,hu: 14% 49% 16%  3%  4%  3%  7%  3%  3%
[libx264 @ 0x55b255db7640] i4 v,h,dc,ddl,ddr,vr,hd,vl,hu: 37% 19% 16%  4%  6%  5%  6%  4%  4%
[libx264 @ 0x55b255db7640] i8c dc,h,v,p: 61% 18% 14%  7%
[libx264 @ 0x55b255db7640] Weighted P-Frames: Y:5.2% UV:0.0%
[libx264 @ 0x55b255db7640] kb/s:2572.29
[aac @ 0x55b255db8e80] Qavg: 326.296
[AVIOContext @ 0x55b255d81240] Statistics: 38319276 bytes read, 4 seeks
[AVIOContext @ 0x55b255dae780] Statistics: 93903 bytes read, 0 seeks
